<svg xmlns="http://www.w3.org/2000/svg" viewBox="0 0 720.00003 419.99996"><defs><style>.cls-1{isolation:isolate;}.cls-2,.cls-5,.cls-6,.cls-7{fill:none;}.cls-3{fill:#062472;opacity:0.26;mix-blend-mode:multiply;}.cls-4{fill:#183a9e;}.cls-5,.cls-6,.cls-7{stroke:#204ecf;}.cls-5{stroke-linecap:round;}.cls-5,.cls-6{stroke-linejoin:round;stroke-width:2px;}.cls-7{stroke-miterlimit:10;}.cls-8{fill:#25a9ef;}.cls-9{fill:#204ecf;}</style></defs><g class="cls-1"><g id="Layer_2" data-name="Layer 2"><g id="Illustrations"><rect class="cls-2" width="720.00003" height="419.99996"/><polyline class="cls-3" points="186.886 289.958 186.886 249.979 152.263 269.968 152.263 309.947"/><polygon class="cls-4" points="117.64 249.979 152.263 269.968 186.886 249.979 152.263 229.989 117.64 249.979"/><polyline class="cls-5" points="186.886 286.213 186.886 249.979 152.263 229.989 117.64 249.979 117.64 289.958 152.263 309.947 180.18 293.83"/><polyline class="cls-3" points="290.754 349.926 290.754 309.947 256.132 329.937 256.132 369.916"/><polygon class="cls-4" points="221.509 309.947 256.132 329.937 290.754 309.947 256.132 289.958 221.509 309.947"/><polygon class="cls-5" points="290.754 349.926 290.754 309.947 256.132 289.958 221.509 309.947 221.509 349.926 256.132 369.916 290.754 349.926"/><polyline class="cls-3" points="186.886 170.021 186.886 130.042 152.263 150.032 152.263 190.01"/><polygon class="cls-4" points="117.64 130.042 152.263 150.032 186.886 130.042 152.263 110.053 117.64 130.042"/><polyline class="cls-6" points="186.886 170.021 186.886 130.042 152.263 110.053 117.64 130.042 117.64 170.021 152.263 190.01 180.179 173.893"/><polyline class="cls-3" points="290.754 229.989 290.754 190.01 256.132 210 256.132 249.979"/><polygon class="cls-4" points="221.509 190.01 256.132 210 290.754 190.01 256.132 170.021 221.509 190.01"/><polyline class="cls-5" points="228.216 233.861 256.132 249.979 284.047 233.862"/><polyline class="cls-6" points="290.754 229.989 290.754 190.01 256.132 170.021 221.509 190.01 221.509 229.989"/><polyline class="cls-3" points="394.623 289.958 394.623 249.979 360 269.968 360 309.947"/><polygon class="cls-4" points="325.377 249.979 360 269.968 394.623 249.979 360 229.989 325.377 249.979"/><polyline class="cls-5" points="332.083 293.83 360 309.947 387.916 293.83"/><polyline class="cls-6" points="394.623 289.958 394.623 249.979 360 229.989 325.377 249.979 325.377 289.958"/><polygon class="cls-3" points="463.868 329.937 463.868 369.916 498.491 349.926 498.491 309.947 463.868 329.937"/><polygon class="cls-4" points="429.246 309.947 463.868 329.937 498.491 309.947 463.868 289.958 429.246 309.947"/><polygon class="cls-6" points="463.868 369.916 498.491 349.926 498.491 309.947 463.868 289.958 429.246 309.947 429.246 349.926 463.868 369.916"/><polygon class="cls-3" points="256.132 90.063 256.132 130.042 290.754 110.053 290.754 70.074 256.132 90.063"/><polygon class="cls-4" points="221.509 70.074 256.132 90.063 290.754 70.074 256.132 50.084 221.509 70.074"/><polyline class="cls-5" points="228.341 113.997 256.132 130.042 284.048 113.924"/><polyline class="cls-6" points="290.754 110.053 290.754 70.074 256.132 50.084 221.509 70.074 221.509 110.053"/><polygon class="cls-3" points="360 150.032 360 190.01 394.623 170.021 394.623 130.042 360 150.032"/><polygon class="cls-4" points="325.377 130.042 360 150.031 394.623 130.042 360 110.053 325.377 130.042"/><polyline class="cls-5" points="332.084 173.893 360 190.01 387.917 173.893"/><polyline class="cls-6" points="394.623 170.021 394.623 130.042 360 110.053 325.377 130.042 325.377 170.021"/><polyline class="cls-3" points="498.491 229.989 498.491 190.01 463.868 210 463.868 249.979"/><polygon class="cls-4" points="429.246 190.01 463.868 210 498.491 190.01 463.868 170.021 429.246 190.01"/><polyline class="cls-6" points="498.491 229.989 498.491 190.01 463.868 170.021 429.246 190.01 429.246 229.989"/><polyline class="cls-5" points="435.952 233.861 463.868 249.979 491.785 233.861"/><polygon class="cls-3" points="567.737 269.968 567.737 309.947 602.359 289.958 602.359 249.979 567.737 269.968"/><polygon class="cls-4" points="533.114 249.979 567.737 269.968 602.359 249.979 567.737 229.989 533.114 249.979"/><polyline class="cls-6" points="539.82 293.83 567.737 309.947 602.359 289.958 602.359 249.979 567.737 229.989 533.114 249.979 533.114 289.958"/><polygon class="cls-3" points="463.868 90.063 463.868 130.042 498.491 110.052 498.491 70.074 463.868 90.063"/><polygon class="cls-4" points="429.246 70.074 463.868 90.063 498.491 70.074 463.868 50.084 429.246 70.074"/><polyline class="cls-6" points="498.491 110.053 498.491 70.074 463.868 50.084 429.246 70.074 429.246 110.053"/><polyline class="cls-5" points="435.952 113.924 463.868 130.042 491.785 113.924"/><polygon class="cls-3" points="567.737 150.031 567.737 190.01 602.359 170.021 602.359 130.042 567.737 150.031"/><polygon class="cls-4" points="533.114 130.042 567.737 150.031 602.359 130.042 567.737 110.052 533.114 130.042"/><polyline class="cls-6" points="539.82 173.893 567.737 190.01 602.359 170.021 602.359 130.042 567.737 110.052 533.114 130.042 533.114 170.021"/><line class="cls-6" x1="186.88605" y1="286.21344" x2="186.88605" y2="289.95776"/><line class="cls-7" x1="186.88606" y1="249.9789" x2="238.82012" y2="219.99471"/><line class="cls-7" x1="290.75442" y1="309.94727" x2="342.68848" y2="279.96308"/><line class="cls-7" x1="186.88605" y1="130.04209" x2="238.47432" y2="100.25754"/><line class="cls-7" x1="290.75441" y1="190.01046" x2="342.68847" y2="160.02627"/><line class="cls-7" x1="394.62276" y1="249.97883" x2="446.55671" y2="219.99471"/><line class="cls-7" x1="498.49112" y1="309.9472" x2="550.42507" y2="279.96308"/><line class="cls-7" x1="394.62275" y1="130.04202" x2="446.55682" y2="100.05783"/><line class="cls-7" x1="498.49111" y1="190.01039" x2="550.42506" y2="160.02627"/><line class="cls-7" x1="533.11389" y1="249.9789" x2="481.17981" y2="219.99471"/><line class="cls-7" x1="429.24553" y1="309.94727" x2="377.31122" y2="279.96294"/><line class="cls-7" x1="533.1139" y1="130.04209" x2="481.52562" y2="100.25754"/><line class="cls-7" x1="429.24554" y1="190.01046" x2="377.65799" y2="160.22634"/><line class="cls-7" x1="325.37719" y1="249.97883" x2="273.78936" y2="220.19455"/><line class="cls-7" x1="221.50883" y1="309.9472" x2="169.57463" y2="279.96294"/><line class="cls-7" x1="325.3772" y1="130.04202" x2="273.44312" y2="100.05783"/><line class="cls-7" x1="221.50884" y1="190.01039" x2="169.57488" y2="160.02627"/><path class="cls-8" d="M230.82822,144.18708c-.3193-3.31992-3.1852-4.43279-6.80348-4.74967l-.00026-4.60506-2.80305.00038.00033,4.48369c-.73689.00011-1.49013.01471-2.23847.02967l.00026-4.51339-2.80156,0-.00087,4.60374c-.60689.0124-1.20286.0237-1.784.0241l-.00037-.01428-3.86612-.0012.00085,2.99376s2.07-.03954,2.03554-.00141a1.44732,1.44732,0,0,1,1.61243,1.22823l.00043,5.24614a2.25243,2.25243,0,0,1,.29628.01953c-.09338.00014-.19334-.00049-.29611.00038l-.00045,7.3493a.99.99,0,0,1-1.05309.92847c.03587.03177-2.03761-.00046-2.03761-.00046l-.55683,3.3476,3.64779-.00025c.67883.00079,1.34676.01227,2.00246.01641l.00135,4.6575,2.8.00036-.00026-4.60826c.76883.01588,1.51284.022,2.23921.02127l-.001,4.587,2.803-.00039.00072-4.64921c4.7125-.27056,8.0108-1.4579,8.4202-5.8833.33057-3.5634-1.34573-5.15336-4.02085-5.79566a4.3376,4.3376,0,0,0,2.40343-4.715Zm-3.9213,9.95894c.00168,3.48056-5.958,3.08489-7.8577,3.08675l.00051-6.1709c1.90027.00038,7.85729-.54618,7.85719,3.08413Zm-1.304-8.70625c-.00076,3.16661-4.971,2.79726-6.55341,2.79745l-.00005-5.59673C220.63184,142.6403,225.60245,142.13692,225.60294,145.43977Z"/><g id="Layer_1-2" data-name="Layer_1"><g id="_1421394342400" data-name=" 1421394342400"><polygon class="cls-9" points="429.242 129.647 428.968 130.576 428.968 157.533 429.242 157.806 441.755 150.41 429.242 129.647"/><polygon class="cls-8" points="429.242 129.647 416.729 150.41 429.242 157.806 429.242 144.722 429.242 129.647"/><polygon class="cls-9" points="429.242 160.175 429.088 160.363 429.088 169.966 429.242 170.416 441.762 152.783 429.242 160.175"/><polygon class="cls-8" points="429.242 170.416 429.242 160.175 416.729 152.783 429.242 170.416"/><polygon class="cls-4" points="429.242 157.806 441.755 150.41 429.242 144.722 429.242 157.806"/><polygon class="cls-9" points="416.729 150.41 429.242 157.806 429.242 144.722 416.729 150.41"/></g></g><path class="cls-8" d="M533.02032,211.40365l-2.0124,6.786h10.764a.54288.54288,0,0,1,.56158.52351l0,.00065v.17784l-.936,3.22921a.69732.69732,0,0,1-.702.5148H524.22189l2.76121-9.40683-3.08881.936.702-2.1528,3.08881-.936,3.88442-13.19764a.70668.70668,0,0,1,.702-.5148h4.16522a.54288.54288,0,0,1,.56158.52351l0,.00065v.17784l-3.276,11.13844,3.08881-.936-.6552,2.2464Z"/><path class="cls-8" d="M324.96113,194.42506a.94908.94908,0,1,1-.28649,1.55031.96577.96577,0,0,1,.28649-1.55031m-7.94989.85675a.74524.74524,0,1,1-.088,1.38577.75228.75228,0,0,1,.088-1.38564m16.28218,1.40056a.74333.74333,0,0,1-.13714-1.41073c.524-.25556,1.0046.22368,1.08124.72029a.81477.81477,0,0,1-.9441.68977m-14.47359,1.983a11.234,11.234,0,1,0,0,.00027m11.45895.50379a1.161,1.161,0,0,1,2.07338-.04829,1.21747,1.21747,0,0,1-.75786,1.68569,1.19969,1.19969,0,0,1-1.31511-1.63672m-6.27546,1.58748a1.42724,1.42724,0,0,1,1.37343-1.34508,1.50821,1.50821,0,0,1,1.178.76492,1.35468,1.35468,0,0,1-.63361,1.846,1.79353,1.79353,0,0,1-1.01058.088,1.46927,1.46927,0,0,1-.90707-1.35376m-11.82263,1.0807a.949.949,0,1,1-.153,1.58776.9519.9519,0,0,1,.153-1.58776m25.38724-.00135a10.43981,10.43981,0,1,0,0-.00068m-10.24,1.33355a2.29226,2.29226,0,1,1-1.41888,2.97611,2.30231,2.30231,0,0,1,1.41888-2.97611m-5.63277.11489a2.29136,2.29136,0,1,1-1.06768,3.10023,2.31078,2.31078,0,0,1,1.06768-3.10023m-5.64009,1.92823a1.441,1.441,0,0,1,1.38008-1.17783,1.52017,1.52017,0,0,1,1.341,1.34291,1.43,1.43,0,0,1-1.3368,1.38849,1.34429,1.34429,0,0,1-1.38429-1.553m16.65887-1.02875a27.13164,27.13164,0,1,0,0,.00014m-13.31109,3.61609a4.20016,4.20016,0,1,1,0-.00013m10.68374-.005a2.29352,2.29352,0,1,1-1.35119,3.28674,2.31621,2.31621,0,0,1,1.35119-3.28674m-17.02553,1.13944a1.15953,1.15953,0,0,1,1.45075,1.46214,1.1462,1.1462,0,0,1-1.85484.48643,1.16023,1.16023,0,0,1,.40423-1.94857m23.08585,1.22543a1.304,1.304,0,0,1,1.2154-1.37,1.221,1.221,0,0,1,1.1043,1.19791,1.15,1.15,0,0,1-1.67172,1.01464,1.552,1.552,0,0,1-.648-.84291m-27.27356-.81145a.74565.74565,0,1,1-.29883,1.1431A.75883.75883,0,0,1,308.874,209.34845Zm32.30838-.01356a.73889.73889,0,0,1,1.08261.34929.72758.72758,0,0,1-.72029,1.01329c-.72748.06633-.9631-1.04232-.36232-1.36258m-18.99567,3.09276a1.82372,1.82372,0,1,0,.00014,0m5.33976-.00285a2.29356,2.29356,0,1,1-1.67768,1.69275,2.30457,2.30457,0,0,1,1.67768-1.69275m-10.29565.85458a1.35175,1.35175,0,1,1-.84034,2.22951,1.36183,1.36183,0,0,1,.84034-2.22951m15.65955.04355a1.35034,1.35034,0,1,1-.25556,2.409,1.35341,1.35341,0,0,1,.25556-2.409m4.37708,4.39023a.9411.9411,0,0,1,.95428-1.31917,1.16284,1.16284,0,0,1,.79693.48833c.04476.3653.11991.80032-.18326,1.08247a.94216.94216,0,0,1-1.56795-.25109m-25.089-1.148a.95469.95469,0,0,1,1.41616.957.95053.95053,0,1,1-1.41616-.95631m12.63557,1.38428a1.34751,1.34751,0,1,1-.25082,2.394,1.36349,1.36349,0,0,1,.25136-2.39445m-5.85373,1.365a1.14572,1.14572,0,0,1,1.60525,1.07162,1.1318,1.1318,0,0,1-1.26464,1.11705,1.13146,1.13146,0,0,1-.34061-2.188m11.85464.01153a1.1513,1.1513,0,1,1-.13565,1.92877,1.16062,1.16062,0,0,1,.13565-1.92877m2.06184,5.09641a.81187.81187,0,0,1,.58749-1.20075c.42593.08668.87628.40694.78676.9007a.75721.75721,0,0,1-1.37425.3m-16.36438-.42865c.12995-.39121.44465-.78.90518-.67824a.7492.7492,0,0,1,.283,1.37127.80307.80307,0,0,1-1.18814-.693m7.89469.44886a.94012.94012,0,0,1,1.37139-.55276c.32556.14012.42146.50515.50529.81538-.04477.16155-.08478.32338-.12412.48494a1.0665,1.0665,0,0,1-.79828.47056.94017.94017,0,0,1-.95428-1.21812"/><g id="Layer_2-2" data-name="Layer 2"><g id="Layer_1-2-2" data-name="Layer 1-2"><path class="cls-8" d="M429.24554,252.08235l-8.3706,11.51852-3.50564,17.02738,11.87624,7.2259,11.87624-7.2259-3.57718-17.09893ZM419.301,279.84126l2.64712-12.94939,6.00966,18.24362Zm3.50564-15.88268,6.43892-8.8714,6.43893,8.8714-6.43893,19.45987Zm7.65516,21.17691,6.00967-18.24362,2.64711,12.9494Z"/></g></g><g id="Layer_2-3" data-name="Layer 2"><g id="Layer_1-2-3" data-name="Layer 1-2"><path class="cls-8" d="M215.39974,267.45835l6.10912-6.10913,6.112,6.11177,3.5546-3.5546L221.50886,254.24l-9.66346,9.66346,3.55446,3.55459m-9.61929,2.51024,3.55472-3.55522,3.55447,3.55446-3.55472,3.55472Zm9.61917,2.51036,6.10912,6.10874,6.11189-6.11163,3.55648,3.5527-.00176.00189-9.66661,9.66623-9.66346-9.66346-.005-.005,3.55976-3.54981m14.72784-2.50847,3.55472-3.55472,3.55447,3.55447-3.55459,3.55472Z"/><path class="cls-8" d="M225.114,269.96644h.00151l-3.60668-3.60694-3.60379,3.60329-.005.00491.005.00516,3.60379,3.60429,3.60694-3.60693.00176-.002-.00327-.00176"/></g></g></g></g></g></svg>